#!OML:ASF E:/inclinewalkrobotboard/Project1/Captureday1/Session1/subject1.ASF
:FULLY-SPECIFIED
:DEGREES
288
root 0 0 0 -1.8236900688858104 -4.953842619594454 -7.075275019699863
lowerback 11.685681135881158 1.7392387467673514 6.398618565226428
upperback 0.5746442985567716 3.2311670972172815 2.264235199424819
thorax -5.736966009468153 1.4623235640849128 -1.713123968261796
lowerneck -17.370932706096763 -3.5797058922865324 -1.48485026355153
upperneck 20.791022568128895 -4.575814360420497 0.14474093583123349
head 9.553305174043095 -2.228823488174261 -0.2973626661815229
rclavicle 1.3448231572324971E-15 1.1119266088578088E-15
rhumerus -28.971208344981644 -18.510569592138516 -77.9690903091878
rradius 28.64698876615711
rwrist 0.8955423969687102
rhand -19.106719414453714 24.117490299076128
rfingers 7.125020000000018
rthumb 7.203184024899072 -5.772647026269656
lclavicle -1.9308956054161027E-15 1.6174947516053782E-15
lhumerus -35.013660688065755 -0.9887289496437804 84.95662153258505
lradius 28.25675619348157
lwrist 6.723328539380812
lhand -27.278462870970248 23.779074006482436
lfingers 7.125020000000016
lthumb -0.681221801138526 53.76734166120255
rfemur -0.14828972163308674 8.432826657642812 36.70412239819175
rtibia 32.0470366876858
rfoot -22.062361593350484 -7.629103192336505
rtoes 8.246913708394725
lfemur -31.219482508461628 1.7110164200133413 -10.680553711305445
ltibia 39.589735672064755
lfoot -7.232839326106807 2.164774408656305
ltoes -5.711786425236152
289
root 0 0 0 -1.6501671556940067 -5.171628424570771 -7.163572281009227
lowerback 11.55013279622203 1.8241023230978377 6.606533884175111
upperback 0.7607397649996365 3.348326144177265 2.2444459859972588
thorax -5.441932107245672 1.5175083039066657 -1.860640854317713
lowerneck -17.510488440737312 -3.5364069207430973 -1.5676486553142353
upperneck 19.933256001473172 -4.47872182896897 0.2265234706509578
head 9.238315949582521 -2.1960072544179896 -0.24341573515354537
rclavicle 1.9015283274762903E-15 6.434533030840028E-16
rhumerus -28.07275897673606 -17.50543831042649 -77.99060732965245
rradius 29.568086391294937
rwrist 0.22329099777772488
rhand -19.262615568036505 24.537264152106534
rfingers 7.125020000000017
rthumb 7.05346038405918 -5.370755897301439
lclavicle -1.7321311573440743E-15 1.2678401242746642E-15
lhumerus -35.17301788231954 -0.8102735910132172 84.92939034922408
lradius 28.089830770260335
lwrist 6.625922026396314
lhand -27.296472435850948 23.702941172985998
lfingers 7.125020000000015
lthumb -0.6986322002615397 53.69330579444812
rfemur 1.9883206182303281 8.385101198783827 36.27869395626288
rtibia 30.552300752011945
rfoot -22.126203947777952 -7.501007169649618
rtoes 6.248121223395461
lfemur -27.86060177322078 -2.276888782177786 -10.921191189820302
ltibia 23.29948556738095
lfoot -5.20302145668197 4.068593826076009
ltoes -5.275287619120441
290
root 0 0 0 -1.6337461541731946 -5.281604902568054 -7.1393990068278095
lowerback 11.471354583267015 1.8652720881246228 6.614504700537101
upperback 0.8277021762623391 3.3945869257792376 2.2179428470902147
thorax -5.320485255122518 1.5408672997831916 -1.8963365671767285
lowerneck -17.547016836340713 -3.5205947176584838 -1.608500247736504
upperneck 19.540566932463452 -4.449769419711431 0.3000494985892308
head 9.093463986425405 -2.183434703331939 -0.2078201602894746
rclavicle 2.284396073294129E-15 -3.794475340376189E-16
rhumerus -27.850605440389188 -17.44002848576011 -77.8741070906441
rradius 29.802625856446348
rwrist 0.060790159549254597
rhand -19.3179764480984 24.6312974683228
rfingers 7.125020000000017
rthumb 7.000592904369061 -5.280013649391947
lclavicle -1.4772024401396402E-15 1.9154237685690197E-16
lhumerus -35.32158444225318 -0.5478515169129176 84.80742335485407
lradius 27.76895095472929
lwrist 6.411522198022535
lhand -27.277518817808446 23.798640229838362
lfingers 7.125020000000017
lthumb -0.680256656165807 53.79021573037154
rfemur 8.889533933311416 8.279897005490975 35.19900714597133
rtibia 26.58378272871417
rfoot -21.39424958207104 -6.108313182042078
rtoes 0.42071483042472946
lfemur -26.606783159453798 -4.2121005606839645 -11.217977210977633
ltibia 20.274059183592712
lfoot -5.356894007692253 4.587802959499653
ltoes -2.0895160379098385
291
root 0 0 0 -1.8578621670890718 -5.267428721863903 -6.904047038432758
lowerback 11.571593539397446 1.8868868374446093 6.336006657216867
upperback 0.7556003128924339 3.393318233166034 2.146334879867411
thorax -5.462344260474193 1.5446783492093592 -1.8181925932882348
lowerneck -17.374288562613394 -3.580346913990791 -1.5820770511872646
upperneck 19.439644664674702 -4.566909074977245 0.4087830990251615
head 9.055487895409705 -2.2229478623061407 -0.18613622642792654
rclavicle 1.8519945063539412E-15 -1.9825830473736913E-15
rhumerus -28.050975367589388 -18.048112502235277 -77.6242317407377
rradius 29.548856452092004
rwrist 0.313206062312819
rhand -19.310456071627403 24.49750182909711
rfingers 7.125020000000017
rthumb 7.00887438271181 -5.421436271434011
lclavicle -1.99803615610883E-15 -1.6510947475599926E-15
lhumerus -35.60618786829376 -0.0422078151531633 84.58354443211485
lradius 27.184138652640563
lwrist 6.022493113079083
lhand -27.23855335583445 23.950198059739794
lfingers 7.125020000000018
lthumb -0.6425578516337209 53.94774028625674
rfemur 12.302094495004653 8.344390665127 35.71333633566852
rtibia 27.21569664334362
rfoot -20.28688196622381 -4.7887878745274595
rtoes -4.219062786711109
lfemur -26.094633249455985 -4.524253203188197 -11.54151554996766
ltibia 20.36131765518812
lfoot -5.543318396250886 4.420033549120375
ltoes -1.4889314907218747
292
root 0 0 0 -2.0784330648302283 -5.205384734521061 -6.494887064591721
lowerback 11.602574374851022 1.9176265643147414 5.885405962284212
upperback 0.6343146067691683 3.3805090655982957 2.007710834731777
thorax -5.620922486693338 1.5458267536988033 -1.7111575849403033
lowerneck -17.071100590474277 -3.642768220364855 -1.5125566416277536
upperneck 19.493996144232444 -4.708235920778036 0.5445793404859876
head 9.058554331824082 -2.2658760288540476 -0.16327011467878177
rclavicle 9.788897296687637E-16 -2.413371295763861E-15
rhumerus -28.56108668624316 -19.128681861473993 -77.20190294685933
rradius 29.0174036630469
rwrist 0.7500299603155121
rhand -19.285166284010053 24.21511820462547
rfingers 7.125020000000017
rthumb 7.033818672692465 -5.713554129671106
lclavicle -2.9100800961423563E-15 -2.3557985788730925E-15
lhumerus -35.88718189069082 0.7230859671765048 84.21647305071738
lradius 26.403629519702037
lwrist 5.555105872066567
lhand -27.1290175201412 24.218833288683104
lfingers 7.125020000000018
lthumb -0.5370413136978769 54.22333403903254
rfemur 11.553432394928269 7.210382281665197 34.25301848431186
rtibia 32.307520283859795
rfoot -16.76133498704821 -3.1999001117868815
rtoes -5.227721553757333
lfemur -25.418094343483066 -4.108478036379814 -12.580162183751966
ltibia 21.47629572060722
lfoot -5.281997934574422 3.4405692503987853
ltoes -1.0199974941867787
